<?xml version="1.0" standalone="no"?>
<!DOCTYPE svg PUBLIC "-//W3C//DTD SVG 20010904//EN"
 "http://www.w3.org/TR/2001/REC-SVG-20010904/DTD/svg10.dtd">
<svg version="1.0" xmlns="http://www.w3.org/2000/svg"
 width="3508.000000pt" height="3508.000000pt" viewBox="0 0 3508.000000 3508.000000"
 preserveAspectRatio="xMidYMid meet">
<metadata>
Created by potrace 1.11, written by Peter Selinger 2001-2013
</metadata>
<g transform="translate(0.000000,3508.000000) scale(0.100000,-0.100000)"
fill="#000000" stroke="none">
<path d="M6755 28143 c-22 -38 -38 -71 -37 -75 1 -5 -2 -8 -8 -8 -5 0 -10 -6
-10 -13 0 -7 -8 -22 -18 -33 -10 -10 -18 -21 -18 -24 1 -6 -119 -215 -175
-308 -22 -35 -39 -67 -39 -72 0 -5 -6 -15 -13 -22 -6 -7 -25 -38 -41 -68 -16
-30 -35 -62 -42 -70 -7 -8 -14 -22 -16 -30 -2 -8 -6 -17 -9 -20 -3 -3 -31 -50
-63 -105 -31 -55 -61 -107 -66 -115 -6 -8 -16 -27 -23 -42 -6 -16 -15 -28 -19
-28 -4 0 -8 -5 -8 -11 0 -6 -9 -24 -21 -40 -11 -16 -18 -29 -15 -29 3 0 -2 -9
-12 -20 -9 -12 -15 -23 -14 -27 2 -3 0 -9 -6 -12 -5 -3 -22 -29 -38 -58 -55
-98 -108 -189 -212 -368 -58 -99 -119 -206 -137 -238 -17 -32 -40 -68 -50 -80
-11 -12 -18 -23 -17 -25 4 -4 -42 -86 -123 -222 -40 -69 -74 -131 -74 -137 -1
-7 -4 -13 -9 -13 -4 0 -18 -21 -32 -47 -13 -27 -36 -67 -52 -89 -15 -23 -24
-44 -21 -48 4 -3 1 -6 -5 -6 -7 0 -12 -4 -12 -10 0 -8 -94 -173 -131 -230 -5
-8 -14 -27 -20 -42 -6 -16 -15 -28 -19 -28 -5 0 -10 -6 -12 -12 -5 -19 -121
-221 -135 -236 -7 -7 -13 -18 -13 -23 0 -6 -15 -34 -34 -64 -19 -29 -32 -56
-29 -59 3 -3 -2 -8 -11 -12 -9 -3 -16 -13 -16 -22 0 -8 -6 -23 -13 -31 -20
-24 -87 -141 -87 -152 0 -5 -4 -9 -8 -9 -5 0 -14 -16 -22 -35 -8 -19 -18 -35
-24 -35 -5 0 -6 -3 -3 -6 4 -4 -2 -19 -12 -33 -11 -15 -34 -54 -52 -86 -18
-33 -35 -62 -38 -65 -3 -3 -19 -30 -35 -60 -16 -30 -35 -62 -42 -71 -8 -8 -14
-21 -14 -27 0 -6 -6 -17 -12 -24 -7 -7 -23 -31 -35 -53 -49 -93 -66 -120 -75
-126 -5 -3 -10 -13 -12 -21 -1 -8 -9 -27 -19 -41 -9 -15 -17 -31 -17 -37 0 -5
-4 -10 -10 -10 -5 0 -10 -5 -10 -11 0 -6 -13 -31 -30 -56 -16 -24 -30 -51 -30
-59 0 -7 -3 -14 -7 -14 -10 0 -43 -58 -43 -75 0 -7 -7 -15 -15 -19 -8 -3 -15
-12 -15 -20 0 -8 -6 -21 -12 -28 -7 -7 -22 -31 -34 -53 -12 -22 -75 -133 -141
-247 -66 -114 -118 -210 -115 -213 3 -3 1 -5 -5 -5 -6 0 -18 -15 -27 -32 -9
-18 -27 -51 -41 -73 -14 -22 -28 -47 -32 -55 -4 -8 -20 -37 -36 -65 -17 -27
-43 -75 -60 -105 -16 -30 -35 -61 -41 -69 -14 -17 -52 -87 -68 -123 -7 -16
-16 -28 -20 -28 -4 0 -8 -6 -8 -13 0 -7 -8 -22 -17 -33 -10 -11 -19 -25 -20
-31 -2 -7 -18 -36 -36 -65 -18 -29 -39 -66 -47 -83 -8 -16 -18 -32 -21 -35 -3
-3 -19 -30 -35 -60 -16 -30 -32 -57 -35 -60 -3 -3 -9 -12 -13 -20 -4 -8 -12
-24 -19 -35 -7 -11 -23 -38 -35 -60 -12 -22 -33 -58 -47 -80 -13 -22 -32 -56
-42 -75 -9 -19 -23 -41 -30 -48 -7 -7 -13 -18 -13 -23 0 -6 -13 -30 -30 -53
-16 -24 -26 -46 -23 -50 4 -3 2 -6 -4 -6 -5 0 -15 -12 -22 -27 -7 -14 -31 -58
-53 -97 -23 -39 -41 -73 -39 -75 1 -2 -1 -7 -7 -10 -5 -3 -20 -26 -34 -51 -58
-105 -102 -175 -110 -178 -4 -2 -6 -7 -3 -12 3 -4 -6 -24 -20 -44 -14 -20 -25
-41 -25 -46 0 -6 -4 -10 -9 -10 -5 0 -12 -9 -16 -20 -3 -10 -30 -59 -58 -108
-29 -48 -59 -100 -67 -115 -8 -15 -48 -85 -89 -155 -41 -70 -83 -143 -94 -162
-11 -19 -28 -48 -38 -65 -11 -16 -22 -37 -26 -45 -3 -8 -21 -39 -40 -68 -18
-29 -33 -54 -33 -57 0 -5 -91 -162 -118 -205 -9 -14 -17 -27 -17 -30 0 -3 -8
-16 -17 -30 -8 -14 -42 -70 -73 -125 -32 -55 -66 -113 -76 -130 -10 -16 -27
-46 -37 -65 -10 -19 -34 -60 -52 -90 -18 -30 -47 -80 -63 -110 -17 -30 -35
-58 -41 -62 -6 -4 -7 -8 -2 -8 5 0 4 -6 -2 -12 -17 -21 -275 -466 -304 -525
-6 -13 -15 -23 -20 -23 -5 0 -7 -4 -4 -9 3 -5 -1 -14 -9 -21 -8 -7 -15 -16
-15 -21 0 -5 -18 -39 -40 -75 -22 -36 -40 -70 -40 -75 0 -5 -4 -9 -10 -9 -5 0
-10 -7 -10 -16 0 -8 -6 -22 -12 -29 -30 -33 -34 -41 -30 -53 2 -6 -1 -12 -6
-12 -5 0 -15 -13 -22 -30 -7 -16 -16 -30 -21 -30 -5 0 -8 -3 -7 -7 2 -5 -41
-83 -95 -175 -53 -92 -97 -172 -97 -178 0 -5 -4 -10 -10 -10 -5 0 -10 -5 -10
-10 0 -6 -20 -43 -44 -83 -41 -68 -57 -95 -107 -184 -40 -73 -63 -108 -73
-115 -6 -4 -7 -8 -3 -8 5 0 -1 -13 -12 -29 -12 -16 -21 -32 -21 -35 0 -10 -63
-111 -74 -118 -6 -4 -7 -8 -3 -8 8 0 3 -10 -33 -65 -11 -16 -23 -37 -27 -45
-3 -8 -15 -27 -25 -42 -11 -16 -16 -28 -11 -28 4 0 4 -4 -2 -8 -30 -22 -40
-82 -13 -82 5 0 7 -4 3 -9 -3 -5 1 -15 8 -23 12 -12 86 -138 96 -163 2 -5 7
-12 10 -15 3 -3 14 -21 24 -40 32 -61 54 -100 81 -140 14 -22 26 -42 26 -46 0
-3 9 -18 20 -34 11 -15 17 -30 13 -34 -3 -3 -1 -6 5 -6 6 0 14 -10 18 -22 3
-13 12 -29 18 -37 15 -19 72 -117 96 -168 11 -23 24 -43 28 -45 4 -2 14 -16
23 -33 45 -87 75 -141 84 -151 6 -6 19 -30 29 -53 11 -22 23 -41 28 -41 4 0 8
-5 8 -11 0 -5 25 -54 56 -107 31 -53 65 -113 76 -132 57 -99 102 -176 107
-180 3 -3 7 -10 8 -17 2 -7 19 -37 38 -68 20 -30 32 -55 28 -55 -4 0 -3 -4 3
-8 9 -6 89 -140 167 -282 17 -30 37 -61 44 -68 7 -8 11 -17 8 -22 -3 -5 -1
-10 3 -12 5 -1 22 -28 39 -58 72 -130 87 -155 97 -162 7 -5 7 -8 1 -8 -7 0 -7
-3 0 -8 6 -4 23 -32 39 -62 16 -30 33 -57 36 -60 4 -3 10 -15 14 -27 4 -13 12
-23 17 -23 5 0 9 -7 9 -15 0 -9 8 -28 18 -43 26 -37 86 -139 107 -182 10 -19
21 -37 24 -40 3 -3 17 -26 30 -52 13 -27 28 -48 33 -48 5 0 7 -4 3 -9 -3 -5 0
-15 7 -23 11 -11 23 -31 72 -123 6 -11 20 -30 30 -42 11 -13 16 -23 13 -23 -4
0 4 -18 18 -40 14 -22 25 -44 25 -50 0 -5 5 -10 10 -10 6 0 10 -4 10 -9 0 -9
69 -131 80 -141 3 -3 14 -23 25 -45 11 -22 22 -42 25 -45 3 -3 18 -30 34 -60
16 -30 44 -79 63 -107 18 -29 30 -53 27 -53 -3 0 2 -7 10 -16 9 -8 16 -22 16
-30 0 -8 5 -14 10 -14 6 0 10 -6 10 -14 0 -7 7 -19 15 -26 8 -7 12 -16 9 -21
-3 -5 0 -9 5 -9 6 0 11 -4 11 -10 0 -9 58 -110 69 -120 4 -3 7 -11 9 -18 1 -7
14 -31 27 -52 14 -22 22 -40 18 -40 -5 0 0 -5 9 -11 10 -5 18 -19 18 -29 0
-11 4 -20 9 -20 5 0 16 -15 25 -32 9 -18 21 -40 26 -48 21 -32 78 -136 81
-145 1 -5 9 -16 16 -23 7 -7 13 -20 13 -28 0 -8 4 -14 9 -14 5 0 14 -15 21
-32 8 -18 19 -40 25 -48 7 -8 24 -35 37 -60 14 -25 48 -85 77 -134 28 -49 51
-93 51 -97 0 -5 5 -9 10 -9 6 0 10 -4 10 -9 0 -5 23 -48 50 -96 28 -48 50 -91
50 -96 0 -5 5 -9 10 -9 6 0 10 -4 10 -9 0 -6 29 -60 65 -121 36 -61 65 -115
65 -121 0 -5 5 -9 11 -9 5 0 7 -4 4 -10 -3 -5 -3 -10 2 -10 4 0 19 -21 33 -47
13 -27 27 -50 31 -53 3 -3 12 -20 20 -37 8 -18 18 -33 22 -33 5 0 5 -5 2 -10
-3 -6 -2 -10 3 -10 8 0 36 -50 32 -59 -1 -2 2 -7 7 -10 4 -3 15 -18 23 -33 8
-15 42 -74 74 -130 33 -57 67 -116 75 -133 8 -16 17 -32 21 -35 4 -3 22 -31
39 -64 18 -32 46 -81 62 -108 16 -27 29 -53 29 -58 0 -6 5 -10 10 -10 6 0 10
-4 10 -9 0 -5 32 -65 71 -133 78 -134 91 -156 147 -256 64 -113 67 -117 72
-122 3 -3 13 -21 24 -40 10 -19 27 -50 37 -67 11 -18 29 -50 40 -70 55 -98 74
-128 82 -134 5 -3 8 -9 7 -13 0 -3 15 -34 35 -67 19 -33 35 -63 35 -66 0 -4 6
-14 14 -22 7 -9 27 -41 43 -71 17 -30 53 -95 82 -144 28 -49 51 -93 51 -97 0
-5 5 -9 10 -9 6 0 10 -5 10 -11 0 -6 9 -24 21 -40 11 -16 17 -29 12 -29 -4 0
-1 -6 7 -13 8 -7 24 -30 35 -52 11 -22 37 -68 57 -103 21 -34 35 -62 33 -62
-3 0 3 -10 15 -22 11 -12 20 -28 20 -35 0 -7 3 -13 8 -13 4 0 16 -20 27 -45
11 -25 22 -45 25 -45 3 0 14 -18 24 -40 11 -22 23 -40 28 -40 5 0 7 -4 4 -9
-3 -5 3 -19 13 -32 17 -23 30 -45 68 -119 10 -19 24 -41 31 -48 6 -7 12 -20
12 -28 0 -8 5 -14 10 -14 6 0 10 -7 10 -15 0 -8 5 -15 11 -15 5 0 8 -4 5 -9
-3 -5 1 -14 9 -21 8 -7 15 -16 15 -20 0 -5 30 -59 67 -122 37 -62 68 -115 68
-118 1 -3 11 -21 23 -40 12 -19 22 -39 22 -43 0 -4 5 -13 11 -20 16 -19 108
-177 102 -177 -2 0 3 -7 11 -16 9 -8 16 -22 16 -30 0 -8 5 -14 10 -14 6 0 10
-7 10 -15 0 -8 3 -15 8 -15 4 0 13 -15 21 -32 8 -18 24 -49 36 -68 12 -19 39
-66 60 -105 21 -38 41 -72 44 -75 3 -3 13 -18 21 -35 8 -16 21 -36 28 -43 7
-8 10 -17 7 -22 -3 -5 -2 -10 3 -12 7 -3 22 -27 80 -128 11 -19 36 -64 57
-100 21 -36 49 -85 63 -110 13 -25 28 -49 32 -55 4 -5 19 -31 33 -56 46 -84
52 -94 62 -101 7 -5 7 -8 0 -8 -6 0 -6 -3 0 -8 13 -8 145 -241 145 -253 0 -5
3 -9 8 -9 4 0 18 -23 31 -50 14 -28 28 -50 32 -50 4 0 10 -11 13 -24 3 -14 12
-31 20 -39 8 -8 22 -29 30 -48 9 -19 30 -56 47 -84 16 -27 33 -58 36 -67 3
-10 9 -18 14 -18 5 0 9 -4 9 -10 0 -5 23 -47 50 -94 28 -47 50 -89 50 -95 0
-5 3 -11 8 -13 9 -4 41 -57 49 -80 5 -16 40 -25 68 -18 9 3 223 3 290 1 17 -1
61 0 98 1 38 2 71 0 74 -5 2 -4 9 -5 14 -1 17 10 59 12 65 2 3 -4 10 -5 16 -2
16 10 59 11 86 2 14 -5 21 -4 17 1 -3 6 4 9 15 8 11 -1 20 -5 20 -10 0 -4 6
-5 13 0 16 10 67 11 73 1 3 -5 10 -5 16 -2 16 10 59 11 86 2 14 -5 21 -4 17 1
-3 6 4 9 15 8 11 -1 20 -5 20 -10 0 -6 5 -6 13 0 13 10 75 10 102 -1 9 -3 13
-2 10 4 -3 5 4 8 15 7 11 -1 20 -5 20 -10 0 -4 6 -5 12 0 17 10 29 11 56 1 14
-5 21 -4 17 1 -3 6 4 9 15 8 11 -1 20 -5 20 -10 0 -5 6 -5 13 2 10 8 17 7 27
-2 10 -9 11 -9 6 1 -9 15 -5 15 28 2 17 -6 27 -6 32 1 4 7 10 7 18 0 6 -5 18
-6 25 -2 7 5 27 6 44 4 44 -7 50 -6 70 2 9 4 17 3 17 -2 0 -5 7 -10 15 -10 8
0 15 3 15 6 0 3 16 6 35 7 19 0 35 -3 35 -8 0 -5 9 -4 20 2 15 8 20 8 20 -2 0
-10 2 -10 9 1 7 11 9 11 14 0 3 -9 6 -9 6 -2 1 8 10 9 31 3 18 -5 32 -5 35 1
4 5 14 5 25 -1 11 -6 21 -6 25 -1 5 9 49 6 65 -4 3 -2 12 0 20 5 8 5 22 5 32
-1 10 -5 18 -6 18 -1 0 5 7 9 15 9 8 0 15 -5 15 -11 0 -6 4 -6 11 1 7 7 20 8
34 3 12 -4 28 -4 35 0 8 5 22 4 32 -1 10 -5 18 -6 18 -1 0 5 7 9 15 9 8 0 15
-5 15 -10 0 -5 6 -4 14 2 11 9 15 9 19 -1 4 -9 6 -9 6 -1 1 8 10 9 31 3 18 -5
32 -5 35 1 4 5 13 5 24 -1 10 -5 21 -6 25 -3 8 8 56 11 56 3 0 -10 44 -6 52 5
5 6 8 5 8 -3 0 -10 5 -10 21 -1 15 8 19 8 15 0 -5 -8 0 -8 18 -1 16 6 26 6 26
0 0 -9 32 -6 50 5 6 3 10 1 10 -6 0 -8 4 -8 15 1 12 10 15 10 15 0 0 -10 3
-10 15 0 8 7 15 8 15 3 0 -10 41 -10 58 1 7 4 12 2 12 -4 0 -7 6 -8 19 0 23
12 34 13 28 2 -6 -8 67 -7 82 2 5 4 12 2 15 -3 7 -11 25 -9 45 3 7 5 16 5 20
-1 7 -10 21 -11 38 0 8 5 13 3 13 -4 0 -8 4 -8 15 1 11 9 15 9 15 1 0 -9 5 -9
21 0 15 8 19 8 15 0 -5 -8 0 -8 18 -1 16 6 26 5 28 -1 2 -7 12 -7 31 0 15 6
27 7 27 2 0 -11 19 -9 38 2 7 5 12 3 12 -3 0 -7 6 -8 19 0 25 13 34 13 26 0
-4 -7 3 -7 19 0 14 5 26 6 26 2 0 -7 69 -8 78 -2 7 6 49 3 60 -4 7 -4 19 -3
26 4 11 8 15 8 18 -1 3 -9 9 -9 27 1 19 10 22 10 15 -2 -6 -10 -5 -11 8 -1 8
7 18 10 22 6 10 -10 98 -10 118 -1 9 5 19 4 23 -2 9 -15 27 -12 19 3 -5 9 -4
9 6 0 9 -8 19 -9 31 -3 11 7 20 7 24 0 3 -5 11 -10 16 -10 6 0 8 4 5 8 -6 11
25 9 42 -2 7 -4 19 -2 27 4 8 7 15 8 15 3 0 -5 9 -9 20 -10 11 -1 18 2 15 8
-4 5 3 5 18 0 13 -5 30 -5 37 -1 9 5 19 5 27 -1 8 -7 18 -7 32 0 13 7 22 8 26
1 3 -5 11 -10 16 -10 6 0 7 4 4 10 -5 8 24 2 45 -10 3 -2 15 2 27 8 14 8 24 9
28 2 9 -15 27 -12 19 3 -5 9 -4 9 6 0 9 -8 19 -9 31 -3 11 7 20 7 24 0 3 -5
11 -10 16 -10 6 0 7 5 3 12 -4 7 -3 8 4 4 17 -10 82 -14 88 -4 3 5 10 6 15 2
20 -12 61 -15 54 -3 -5 7 0 7 16 -1 17 -10 24 -10 27 -1 2 6 8 11 13 11 6 0 8
-3 6 -7 -3 -5 28 -8 68 -8 40 0 71 4 68 8 -3 5 5 4 17 -3 18 -9 24 -9 30 0 5
9 9 9 14 1 4 -6 12 -11 17 -11 6 0 7 5 3 11 -4 7 2 6 17 -1 17 -10 24 -10 27
-1 2 6 8 11 13 11 6 0 8 -3 6 -7 -3 -5 10 -9 29 -9 19 -1 31 3 28 8 -4 6 2 5
13 -1 14 -7 23 -7 30 0 8 8 17 8 31 0 27 -14 35 -14 26 1 -4 7 -3 8 5 4 21
-14 63 -18 56 -5 -6 8 -2 8 13 0 15 -8 23 -8 27 0 4 6 14 7 24 4 34 -14 63
-16 56 -4 -5 8 -1 7 15 -1 18 -9 24 -9 30 0 5 9 9 9 14 1 4 -6 12 -11 17 -11
6 0 7 5 3 11 -4 7 2 6 17 -1 17 -10 24 -10 27 -1 2 6 9 8 15 4 18 -11 49 -14
43 -5 -3 5 1 9 9 9 8 0 12 -4 9 -9 -8 -13 10 -10 25 4 8 7 11 8 8 2 -5 -8 15
-10 66 -9 39 2 72 4 72 5 0 1 8 3 18 5 9 2 15 0 12 -5 -6 -10 66 -7 84 4 9 6
12 5 7 -2 -7 -12 32 -11 51 1 6 4 14 3 17 -2 7 -11 45 -9 65 4 9 5 12 4 8 -2
-5 -9 156 -11 188 -3 6 1 12 1 15 0 11 -6 148 -5 145 0 -2 4 2 7 10 7 8 0 12
-3 10 -6 -1 -3 68 -6 155 -7 110 0 157 3 153 10 -3 6 0 5 8 -2 17 -16 32 -16
23 1 -6 9 -4 9 7 1 20 -15 59 -15 59 -1 0 8 3 8 8 2 10 -15 224 -16 215 -1 -3
6 -1 6 8 -1 7 -7 17 -13 22 -13 4 0 5 6 1 13 -6 9 -4 9 7 1 20 -15 59 -15 59
-1 0 8 3 8 8 2 10 -15 224 -16 215 -1 -5 8 -3 8 8 0 20 -16 6987 -18 7006 -2
7 6 13 7 13 2 0 -5 11 -9 25 -9 14 0 25 4 25 8 0 5 4 5 10 2 15 -9 93 -10 108
-2 7 5 12 3 12 -3 0 -7 6 -8 19 -1 10 6 21 7 25 4 11 -12 36 -12 36 0 0 7 3 8
10 1 6 -6 31 -8 60 -4 28 4 50 4 50 1 0 -3 16 -6 35 -7 19 0 35 3 35 8 0 5 5
6 11 3 14 -9 129 -13 124 -5 -2 4 6 5 18 4 12 -1 22 -3 22 -4 0 -1 19 -3 42
-4 23 -1 40 2 37 6 -3 4 6 4 19 -1 13 -5 30 -5 37 -1 8 5 19 6 24 2 16 -9 86
-9 80 0 -3 4 5 4 18 -1 30 -11 39 -11 62 1 10 5 16 6 13 1 -5 -7 94 -9 113 -2
3 1 10 0 15 -1 25 -6 61 -5 77 2 9 5 19 4 22 0 6 -10 93 -9 102 1 4 4 13 2 20
-4 8 -6 14 -6 18 0 4 6 18 6 35 1 15 -4 34 -4 42 0 7 5 16 7 19 5 16 -10 60
-13 65 -5 3 5 16 6 28 2 12 -4 74 -7 137 -5 63 2 120 3 125 3 6 0 33 -1 60 -3
28 -2 58 0 67 5 9 4 19 4 22 -1 5 -8 27 -8 46 -1 3 1 10 1 15 0 33 -8 295 -4
295 5 0 6 4 4 9 -3 11 -17 21 -17 32 0 5 7 9 8 9 2 0 -13 31 -14 48 -1 6 5 12
6 12 1 0 -5 1149 -10 2649 -10 l2649 -2 11 22 c5 11 26 48 46 81 19 33 41 71
47 85 7 14 15 27 19 30 3 3 8 12 12 20 4 8 18 33 31 55 14 22 33 55 42 73 9
17 20 32 25 32 5 0 6 7 3 15 -4 8 -2 15 4 15 5 0 15 14 22 30 7 17 17 30 23
30 6 0 8 3 4 6 -3 4 5 23 18 43 14 19 25 41 25 48 0 7 4 13 8 13 5 0 14 12 21
27 7 14 29 56 51 92 21 36 38 70 38 75 0 5 4 12 9 15 8 5 100 161 158 266 12
22 41 71 64 109 22 37 41 70 41 72 0 2 20 37 45 77 25 41 45 78 45 81 0 4 7
14 15 23 8 8 13 19 10 24 -4 5 -2 9 3 9 5 0 17 15 26 33 9 17 21 39 26 47 34
53 100 173 100 181 0 5 4 9 9 9 5 0 13 10 17 23 4 12 19 40 33 62 14 22 32 51
39 65 7 14 25 46 40 72 15 25 47 81 71 125 24 43 51 86 59 96 8 9 11 17 6 17
-5 0 -4 4 2 8 6 4 43 66 84 137 41 72 78 133 84 137 6 4 7 8 2 8 -5 0 -3 7 4
15 14 17 44 67 62 105 7 14 15 27 19 30 3 3 21 32 38 65 18 33 55 98 83 145
57 98 84 145 124 215 15 28 32 53 37 56 5 3 7 8 6 10 -2 2 14 32 34 67 20 35
37 65 37 67 0 2 13 24 30 48 16 25 30 48 30 51 0 3 13 27 29 53 56 92 82 138
88 156 3 9 9 17 14 17 5 0 9 4 9 9 0 5 23 49 51 98 29 48 65 113 82 143 17 30
34 57 39 58 4 2 8 8 8 13 0 6 25 52 55 104 30 51 55 98 55 103 0 6 4 12 8 14
7 3 22 27 80 128 11 19 36 64 57 100 21 36 49 86 63 113 14 26 29 47 34 47 5
0 7 4 3 9 -3 5 -1 12 4 16 5 3 16 18 24 33 7 15 37 67 65 116 29 49 52 90 52
92 0 2 15 27 33 56 19 29 37 60 41 68 12 26 31 57 45 74 7 9 10 16 7 16 -4 0
6 19 22 43 16 23 32 49 35 57 4 8 18 33 32 55 14 22 28 48 31 58 4 9 10 17 15
17 5 0 8 3 7 8 -3 8 48 98 70 125 8 9 12 17 8 17 -4 0 7 20 23 44 17 25 36 55
41 68 6 13 19 37 30 53 10 17 29 50 42 75 13 25 26 50 31 55 24 31 55 85 50
85 -3 0 1 8 9 18 9 9 32 46 51 82 45 83 133 232 145 245 5 6 6 17 4 25 -3 8
-1 12 3 8 5 -5 17 9 27 30 10 20 32 60 49 87 16 28 33 58 36 68 3 9 9 17 14
17 5 0 9 6 9 14 0 8 6 21 13 28 6 7 21 31 33 53 28 55 48 89 55 95 3 3 13 21
23 40 24 48 44 83 94 162 23 38 42 70 42 72 0 3 20 39 45 80 25 42 45 81 45
86 0 6 5 10 10 10 6 0 10 5 10 11 0 6 9 24 21 40 11 16 17 29 13 29 -4 0 2 10
13 23 11 12 27 38 37 57 20 41 33 64 63 107 13 17 23 39 23 47 0 9 5 16 10 16
6 0 10 7 10 15 0 8 5 15 12 15 6 0 9 3 5 6 -3 3 6 25 20 48 47 73 123 209 123
217 0 5 4 9 8 9 5 0 14 16 22 35 8 19 17 35 22 35 4 0 8 4 8 9 0 11 67 128 87
152 7 8 13 23 13 32 0 9 4 17 8 17 5 0 17 18 27 40 10 22 22 40 27 40 4 0 8 9
8 19 0 11 4 21 8 23 4 2 25 35 47 73 21 39 41 72 44 75 3 3 14 21 23 40 10 19
22 42 28 50 20 31 130 222 130 226 0 2 22 40 49 83 27 44 47 82 43 85 -3 3 0
6 6 6 7 0 12 4 12 10 0 5 18 39 40 75 22 36 40 69 40 74 0 5 4 11 9 13 5 2 11
10 13 18 2 8 6 17 9 20 12 11 144 246 141 253 -1 4 1 7 6 7 4 0 19 21 32 48
14 26 27 49 30 52 6 6 26 42 49 85 9 16 18 32 21 35 6 6 20 31 63 110 17 30
34 56 39 58 4 2 8 12 8 23 0 10 3 19 8 19 4 0 21 26 37 58 17 31 33 59 38 60
4 2 7 8 7 14 0 5 9 21 20 35 11 14 18 29 15 33 -3 4 2 10 10 14 8 3 15 10 15
16 0 10 188 341 199 350 3 3 14 21 23 40 26 52 61 113 76 128 6 7 12 17 12 22
0 5 21 44 46 87 26 43 55 92 64 108 9 17 43 74 74 128 l57 99 -68 116 c-37 65
-72 120 -78 124 -5 4 -6 8 -2 8 4 0 -7 24 -26 53 -18 28 -36 59 -40 67 -4 8
-18 33 -32 55 -14 22 -31 52 -37 68 -7 15 -16 27 -21 27 -4 0 -5 5 -2 10 3 6
1 10 -4 10 -6 0 -11 5 -11 11 0 5 -11 26 -25 46 -13 20 -22 40 -19 45 3 4 1 8
-3 8 -5 0 -17 17 -28 38 -10 20 -24 44 -31 52 -6 8 -26 42 -43 74 -17 33 -35
64 -40 70 -4 6 -20 31 -33 56 -45 80 -69 124 -119 208 -27 45 -49 87 -49 92 0
6 -3 10 -8 10 -4 0 -13 12 -19 28 -7 15 -23 43 -35 62 -12 19 -22 37 -23 40 0
3 -17 33 -38 68 -20 35 -37 67 -37 73 0 5 -3 9 -8 9 -4 0 -22 28 -40 63 -18
34 -44 80 -58 102 -13 22 -29 49 -34 60 -5 11 -21 38 -35 60 -14 22 -30 52
-36 68 -6 15 -15 27 -20 27 -5 0 -9 4 -9 9 0 5 -32 64 -71 132 -40 68 -86 149
-102 179 -17 30 -34 57 -39 58 -4 2 -6 8 -2 13 3 5 0 9 -5 9 -6 0 -11 6 -11
14 0 7 -7 19 -15 26 -8 7 -15 21 -15 31 0 11 -4 19 -9 19 -5 0 -15 16 -22 35
-7 19 -17 35 -21 35 -4 0 -8 7 -8 15 0 8 -4 15 -9 15 -5 0 -11 8 -14 18 -8 23
-77 146 -86 152 -7 5 -18 28 -19 43 -1 4 -8 15 -17 23 -8 9 -15 22 -15 30 0 8
-4 14 -9 14 -5 0 -11 8 -14 18 -6 17 -32 63 -88 155 -16 26 -29 49 -29 51 0 2
-27 50 -60 105 -33 56 -60 105 -60 110 0 5 -4 11 -8 13 -7 3 -30 41 -94 158
-10 19 -27 49 -37 65 -10 17 -28 47 -40 68 -32 56 -54 94 -110 190 -28 49 -51
93 -51 98 0 5 -3 9 -8 9 -4 0 -15 17 -25 38 -10 20 -35 66 -57 102 -22 36 -47
81 -57 100 -9 19 -23 41 -30 48 -7 7 -16 24 -19 38 -3 13 -10 24 -15 24 -5 0
-9 5 -9 10 0 6 -12 29 -27 53 -15 23 -28 44 -28 47 0 3 -8 16 -16 30 -21 33
-55 92 -92 160 -16 30 -35 62 -42 70 -6 8 -19 32 -29 53 -9 20 -21 37 -26 37
-6 0 -9 3 -8 8 2 7 -4 19 -44 87 -9 17 -20 38 -24 48 -3 9 -10 17 -15 17 -5 0
-9 6 -9 13 0 7 -20 45 -45 85 -25 40 -45 74 -45 76 0 3 -20 39 -45 80 -25 42
-45 81 -45 86 0 6 -4 10 -10 10 -5 0 -10 6 -10 14 0 8 -6 21 -13 28 -7 7 -14
16 -15 21 -1 4 -8 17 -15 30 -8 12 -33 56 -57 97 -23 41 -52 91 -63 110 -11
19 -31 55 -45 80 -14 25 -36 62 -49 82 -12 21 -23 40 -23 44 0 3 -7 12 -15 21
-8 8 -13 19 -10 24 4 5 2 9 -2 9 -5 0 -19 19 -31 43 -23 43 -33 60 -137 239
-33 57 -65 115 -72 131 -7 15 -17 27 -23 27 -5 0 -9 3 -8 8 3 9 -32 75 -44 83
-5 3 -8 8 -7 10 2 2 -15 36 -38 74 -22 39 -75 131 -118 205 -43 74 -87 151
-98 170 -11 19 -27 47 -34 62 -8 15 -19 30 -24 33 -5 4 -7 11 -4 16 4 5 2 9
-3 9 -5 0 -17 18 -27 40 -10 22 -22 40 -27 40 -5 0 -7 4 -3 9 3 5 1 12 -5 16
-6 3 -18 23 -28 43 -10 20 -33 61 -50 90 -17 28 -29 52 -26 52 2 0 -4 10 -16
22 -11 12 -20 27 -20 34 0 7 -6 19 -13 26 -7 7 -27 38 -44 68 -16 30 -106 188
-200 350 -93 162 -184 322 -203 355 -19 33 -37 62 -42 63 -4 2 -8 9 -8 16 0 6
-11 28 -25 49 -14 20 -22 37 -18 37 4 0 3 4 -2 8 -13 8 -95 151 -95 163 0 5
-4 9 -10 9 -5 0 -10 4 -10 9 0 5 -32 65 -71 133 -78 134 -100 173 -121 209 -7
13 -15 26 -18 29 -3 3 -15 25 -28 50 -26 50 -44 83 -53 90 -3 3 -13 21 -22 40
-10 19 -26 49 -36 65 -47 77 -131 228 -131 236 0 5 -3 9 -7 9 -5 0 -13 10 -19
23 -17 36 -77 142 -83 147 -3 3 -15 23 -27 45 -11 22 -44 80 -72 129 -29 49
-52 93 -52 97 0 5 -4 9 -10 9 -5 0 -10 4 -10 9 0 5 -23 47 -50 94 -27 47 -50
90 -50 96 0 6 -3 11 -8 11 -4 0 -18 21 -32 48 -25 48 -70 126 -99 172 -8 14
-16 27 -16 30 0 3 -8 16 -16 30 -26 41 -75 124 -82 140 -4 8 -23 42 -43 75
-19 33 -38 68 -41 78 -3 9 -9 17 -14 17 -5 0 -9 4 -9 10 0 5 -13 31 -29 57
-47 78 -80 136 -99 173 -9 19 -19 37 -22 40 -3 3 -14 18 -24 33 -12 20 -24 27
-37 24 -10 -3 -22 -1 -25 4 -3 5 -10 6 -17 2 -15 -9 -57 -10 -57 -1 0 4 -10 4
-23 -1 -14 -5 -30 -5 -40 0 -9 6 -17 6 -17 1 0 -8 -68 -7 -77 2 -3 2 -17 1
-32 -4 -16 -4 -34 -4 -41 0 -6 4 -26 4 -44 0 -17 -4 -40 -4 -51 0 -11 4 -32 4
-47 -1 -16 -4 -30 -3 -34 2 -3 6 -10 6 -17 1 -7 -5 -23 -6 -37 -2 -14 4 -37 3
-52 -1 -15 -4 -30 -4 -33 0 -2 5 -23 5 -45 1 -22 -4 -40 -5 -40 -1 0 3 -24 6
-54 6 -30 0 -52 -3 -49 -7 2 -5 -7 -4 -21 2 -16 6 -26 6 -26 0 0 -6 -9 -6 -25
0 -15 6 -26 6 -30 0 -4 -6 -13 -7 -23 -2 -9 5 -28 6 -42 2 -14 -4 -33 -3 -42
2 -10 5 -19 4 -23 -2 -4 -7 -12 -7 -25 0 -13 7 -21 7 -25 0 -4 -6 -13 -7 -24
-1 -10 6 -23 6 -31 1 -9 -5 -19 -5 -26 1 -8 7 -14 6 -19 -1 -4 -7 -12 -7 -25
0 -13 7 -21 7 -25 0 -4 -7 -14 -6 -28 2 -12 6 -24 10 -27 9 -3 -2 -13 -7 -22
-12 -12 -7 -18 -6 -18 1 0 8 -6 8 -20 0 -14 -8 -20 -8 -20 0 0 7 -6 8 -19 0
-14 -7 -22 -7 -26 0 -5 8 -12 7 -22 -2 -9 -7 -17 -13 -17 -12 -17 14 -46 22
-51 14 -4 -7 -12 -7 -25 0 -13 7 -21 7 -25 0 -4 -6 -11 -7 -18 -3 -15 9 -60 9
-75 -1 -7 -4 -12 -3 -12 2 0 10 -30 9 -48 -2 -6 -4 -12 -4 -12 1 0 4 -16 8
-35 8 -19 0 -35 -4 -35 -8 0 -4 -8 -3 -18 2 -13 7 -22 7 -29 0 -8 -8 -13 -7
-17 0 -5 8 -13 8 -27 1 -12 -7 -19 -7 -19 -1 0 7 -9 7 -25 1 -15 -6 -26 -6
-30 0 -4 6 -13 7 -23 1 -9 -5 -26 -5 -37 -1 -11 4 -26 3 -32 -2 -9 -7 -13 -7
-13 -1 0 10 -53 8 -69 -1 -4 -3 -13 -1 -21 4 -9 5 -19 5 -27 -2 -8 -6 -13 -7
-13 -1 0 9 -59 8 -86 -1 -6 -2 -17 0 -25 4 -8 5 -19 4 -26 -2 -7 -6 -13 -6
-13 -1 0 5 -9 9 -20 9 -11 0 -20 -4 -20 -9 0 -4 -6 -5 -12 -1 -18 11 -48 12
-48 2 0 -5 -6 -6 -12 -2 -19 12 -48 12 -48 1 0 -6 -5 -6 -12 0 -11 7 -91 9
-108 3 -3 -1 -9 -1 -15 0 -32 7 -55 6 -55 -2 0 -5 -6 -6 -12 -2 -18 11 -48 12
-48 2 0 -5 -6 -6 -12 -2 -18 11 -48 12 -48 2 0 -5 -5 -6 -12 -2 -17 10 -108
11 -108 1 0 -5 -6 -5 -12 -1 -19 12 -48 12 -48 1 0 -6 -5 -6 -12 -1 -16 11
-68 11 -85 1 -7 -5 -13 -4 -13 0 0 10 -41 10 -58 -1 -7 -4 -12 -3 -12 1 0 12
-63 10 -72 -2 -5 -6 -8 -6 -8 1 0 12 -29 12 -48 0 -6 -4 -12 -3 -12 3 0 9 -37
7 -48 -3 -2 -3 -13 -1 -23 5 -13 7 -19 6 -19 -1 0 -6 -5 -8 -12 -4 -19 12 -48
12 -48 1 0 -6 -5 -6 -12 0 -16 11 -88 11 -105 0 -7 -5 -13 -4 -13 1 0 11 -40
10 -57 -1 -7 -5 -13 -4 -13 1 0 12 -53 10 -62 -3 -5 -7 -8 -6 -8 1 0 12 -38
13 -57 1 -6 -4 -14 -4 -17 1 -6 10 -68 8 -84 -2 -7 -4 -12 -3 -12 1 0 5 -16 9
-35 9 -19 0 -35 -4 -35 -9 0 -5 -7 -3 -17 4 -9 8 -19 12 -22 11 -29 -18 -41
-21 -45 -13 -5 7 -29 8 -61 1 -5 -1 -12 -1 -15 0 -18 8 -60 5 -60 -4 0 -7 -3
-7 -8 -1 -9 13 -62 14 -62 2 0 -6 -5 -6 -12 0 -15 11 -108 11 -125 0 -7 -5
-13 -4 -13 0 0 11 -80 11 -96 1 -6 -4 -14 -4 -18 0 -12 11 -76 9 -76 -2 0 -8
-3 -8 -8 -1 -9 14 -55 13 -64 0 -5 -6 -8 -6 -8 1 0 13 -62 13 -72 -1 -5 -6 -8
-6 -8 1 0 12 -38 13 -57 1 -6 -4 -14 -3 -17 1 -6 10 -46 10 -62 -1 -6 -3 -14
-3 -18 1 -12 11 -126 9 -126 -3 0 -6 -3 -7 -8 0 -9 12 -72 15 -72 3 0 -5 -5
-6 -11 -2 -19 11 -79 12 -79 0 0 -7 -3 -8 -8 -1 -4 6 -34 11 -67 11 -33 0 -63
-5 -67 -11 -5 -7 -8 -6 -8 1 0 12 -157 14 -176 2 -6 -4 -14 -4 -18 -1 -12 12
-67 12 -60 1 5 -7 2 -8 -7 -2 -22 14 -100 14 -92 1 5 -9 3 -9 -8 -1 -17 13
-68 13 -88 0 -9 -6 -12 -5 -8 1 4 6 -29 10 -93 9 -60 -1 -100 -5 -100 -11 0
-6 -3 -6 -8 0 -10 14 -105 15 -114 1 -5 -7 -8 -8 -8 0 0 11 -78 13 -96 2 -6
-4 -14 -4 -18 -1 -12 13 -48 14 -40 1 5 -8 3 -8 -7 -2 -20 13 -210 13 -202 1
4 -6 1 -7 -8 -1 -20 13 -113 13 -121 0 -5 -7 -8 -7 -8 0 0 13 -189 13 -209 0
-9 -6 -12 -5 -8 1 9 14 -126 12 -135 -1 -5 -8 -8 -8 -8 0 0 15 -61 16 -79 1
-9 -7 -12 -8 -8 -1 8 14 -121 14 -142 0 -9 -6 -12 -5 -8 1 9 14 -506 13 -515
-1 -6 -8 -8 -8 -8 0 0 7 -21 12 -55 12 -34 0 -55 -5 -55 -12 0 -8 -2 -8 -8 0
-8 13 -141 13 -161 0 -9 -6 -12 -5 -8 1 4 6 -79 10 -236 10 -172 1 -244 -2
-249 -10 -6 -9 -8 -9 -8 0 0 15 -3815 19 -3825 3 -4 -6 -12 -7 -24 -1 -10 6
-23 6 -31 1 -8 -5 -21 -6 -29 -2 -21 9 -53 8 -69 -1 -6 -5 -12 -4 -12 1 0 10
-30 9 -48 -2 -6 -4 -12 -3 -12 1 0 5 -19 8 -42 6 -24 -2 -47 -4 -53 -4 -5 0
-20 2 -32 5 -13 2 -23 0 -23 -5 0 -6 -6 -7 -12 -3 -19 12 -48 12 -48 1 0 -5
-7 -4 -15 3 -12 10 -15 10 -15 -1 0 -9 -3 -10 -8 -4 -9 13 -62 14 -62 2 0 -6
-5 -6 -12 0 -15 11 -68 11 -85 0 -6 -4 -14 -3 -17 1 -5 8 -29 9 -61 2 -5 -1
-12 -1 -15 0 -19 7 -41 7 -46 -1 -3 -5 -13 -5 -22 -1 -21 10 -53 9 -69 -1 -7
-5 -13 -4 -13 0 0 5 -13 9 -30 8 -16 0 -30 -4 -30 -8 0 -5 -6 -5 -12 0 -18 11
-58 12 -64 1 -3 -4 -10 -6 -15 -2 -17 10 -59 12 -65 3 -3 -5 -13 -5 -22 -1
-21 10 -53 9 -69 -1 -7 -5 -13 -4 -13 2 0 5 -12 8 -26 5 -35 -6 -38 -7 -44 -4
-16 6 -72 5 -76 -2 -3 -5 -10 -5 -17 -1 -18 11 -127 10 -127 -2 0 -7 -3 -7 -8
0 -4 6 -20 11 -37 11 -16 0 -33 -5 -37 -11 -5 -7 -8 -7 -8 0 0 6 -16 11 -35
11 -19 0 -35 -5 -35 -11 0 -7 -3 -7 -8 0 -4 6 -36 11 -72 11 -36 0 -68 -5 -72
-11 -5 -7 -8 -7 -8 0 0 9 -53 12 -70 5 -3 -1 -9 -1 -15 0 -31 7 -66 6 -71 -1
-3 -5 -11 -6 -17 -2 -16 11 -49 11 -69 1 -9 -4 -19 -4 -22 0 -6 10 -46 10 -62
-1 -6 -3 -14 -3 -18 1 -12 11 -126 9 -126 -3 0 -6 -3 -7 -8 0 -10 14 -105 15
-114 1 -5 -7 -8 -8 -8 0 0 6 -33 10 -89 10 -60 0 -88 -3 -83 -10 4 -7 1 -7 -9
0 -17 13 -158 13 -178 0 -9 -6 -12 -5 -8 1 4 6 -11 10 -39 10 -24 0 -47 -4
-50 -9 -3 -4 -11 -5 -17 -1 -18 12 -147 10 -147 -2 0 -6 -3 -6 -8 1 -8 13 -91
13 -111 0 -9 -6 -12 -5 -8 1 8 13 -91 12 -112 -1 -9 -6 -12 -5 -8 1 8 13 -152
12 -172 -1 -9 -6 -12 -5 -8 1 9 14 -126 12 -135 -1 -6 -8 -8 -8 -8 0 0 13
-148 13 -169 0 -9 -6 -12 -5 -8 1 9 14 -126 12 -135 -1 -5 -8 -8 -7 -8 0 0 14
-68 13 -89 0 -9 -6 -12 -5 -8 1 7 12 -91 12 -109 1 -6 -4 -14 -4 -18 0 -13 12
-426 10 -419 -2 5 -8 2 -7 -8 0 -16 13 -68 13 -88 0 -9 -6 -12 -5 -8 1 4 6
-62 10 -188 9 -134 0 -192 -3 -187 -10 4 -7 1 -7 -9 0 -19 15 -101 15 -92 0 5
-8 3 -8 -8 0 -10 9 -548 12 -2099 13 l-2085 1 -40 -67z m2522 -4022 c7 7 13 8
13 3 0 -5 36 -9 79 -9 48 -1 77 3 74 9 -4 5 -1 6 8 0 20 -12 109 -12 109 1 0
7 3 7 8 0 9 -13 123 -15 115 -2 -4 6 -1 7 8 1 20 -12 109 -12 109 1 0 7 3 7 8
0 9 -13 123 -15 115 -2 -4 6 -1 7 8 1 21 -12 99 -13 99 0 0 8 2 8 8 0 8 -12
150 -13 169 -1 6 4 14 4 17 -1 6 -10 207 -9 223 1 6 4 14 4 17 -1 6 -10 212
-10 222 0 4 4 12 4 18 0 18 -11 196 -9 196 3 0 6 3 6 8 -1 4 -6 16 -11 27 -11
11 0 23 5 27 11 5 7 8 8 8 0 0 -6 31 -10 80 -11 52 0 77 3 73 10 -4 6 -1 7 8
1 20 -13 290 -13 282 -1 -4 6 -1 7 8 1 21 -13 441 -13 458 0 11 8 13 8 8 0 -4
-7 15 -11 58 -11 42 0 62 3 58 10 -4 6 -1 7 8 1 21 -14 442 -14 451 0 6 8 8 8
8 0 0 -15 252 -15 262 0 6 8 8 8 8 0 0 -9 134 -12 506 -12 278 0 507 -2 509
-4 3 -2 -24 -52 -59 -111 -35 -59 -61 -107 -57 -107 3 0 -2 -7 -12 -14 -10 -8
-18 -17 -17 -21 1 -5 -60 -115 -115 -206 -5 -9 -23 -38 -38 -65 -15 -27 -41
-71 -57 -99 -16 -27 -33 -57 -36 -65 -4 -8 -22 -39 -41 -67 -18 -29 -29 -53
-25 -53 4 0 2 -4 -4 -8 -6 -4 -28 -38 -49 -77 -21 -38 -42 -72 -45 -75 -3 -3
-12 -20 -19 -37 -8 -18 -17 -33 -22 -33 -5 0 -9 -5 -9 -11 0 -6 -9 -23 -20
-39 -11 -15 -17 -30 -13 -34 3 -3 1 -6 -5 -6 -7 0 -12 -7 -12 -15 0 -8 -3 -15
-7 -15 -5 0 -17 -19 -28 -43 -11 -23 -22 -44 -25 -47 -5 -4 -208 -356 -280
-485 -12 -22 -27 -43 -32 -46 -5 -3 -10 -13 -12 -21 -1 -9 -6 -22 -12 -29 -5
-8 -18 -30 -28 -49 -11 -19 -22 -37 -26 -40 -3 -3 -14 -21 -23 -40 -10 -19
-26 -48 -36 -65 -10 -16 -29 -49 -42 -72 -13 -23 -64 -112 -114 -197 -49 -86
-96 -169 -104 -184 -8 -15 -18 -28 -23 -30 -4 -2 -8 -7 -8 -12 0 -4 -121 -218
-270 -474 -149 -257 -270 -472 -270 -477 0 -5 -4 -9 -10 -9 -5 0 -10 -9 -10
-21 0 -11 -4 -17 -10 -14 -5 3 -10 1 -10 -6 0 -6 -20 -44 -44 -84 -25 -40 -42
-76 -39 -79 4 -3 1 -6 -5 -6 -7 0 -12 -6 -12 -13 0 -7 -8 -22 -18 -33 -10 -10
-19 -22 -20 -27 -3 -12 -34 -72 -41 -77 -3 -3 -15 -24 -26 -47 -11 -24 -23
-43 -27 -43 -5 0 -8 -5 -8 -10 0 -6 -16 -35 -35 -65 -19 -30 -31 -55 -27 -55
4 0 2 -4 -4 -8 -6 -4 -30 -43 -54 -87 -24 -44 -47 -81 -52 -83 -4 -2 -8 -10
-8 -17 0 -8 -6 -20 -13 -27 -7 -7 -26 -38 -41 -68 -16 -30 -34 -58 -40 -62 -6
-4 -8 -8 -4 -8 4 0 -7 -24 -25 -52 -19 -29 -37 -60 -40 -68 -4 -8 -11 -22 -17
-30 -43 -67 -88 -149 -83 -154 4 -3 1 -6 -4 -6 -6 0 -21 -21 -34 -47 -12 -27
-26 -50 -30 -53 -4 -3 -13 -17 -19 -30 -5 -14 -26 -50 -45 -80 -19 -30 -34
-61 -35 -67 0 -7 -4 -13 -9 -13 -5 0 -15 -16 -22 -35 -7 -19 -16 -35 -19 -35
-4 0 -17 -22 -30 -50 -13 -27 -26 -50 -29 -50 -3 0 -13 -15 -20 -32 -8 -18
-36 -68 -63 -111 -26 -43 -48 -80 -48 -82 0 -3 -190 -333 -210 -365 -6 -8 -21
-35 -35 -60 -14 -25 -36 -63 -50 -85 -13 -22 -33 -56 -43 -75 -10 -19 -34 -60
-52 -90 -30 -50 -64 -110 -94 -165 -6 -11 -13 -22 -16 -25 -3 -3 -16 -25 -29
-50 -33 -62 -84 -144 -94 -151 -5 -3 -8 -9 -7 -13 2 -4 -16 -40 -39 -81 l-42
-73 17 -36 c10 -20 21 -36 26 -36 4 0 8 -5 8 -11 0 -6 26 -54 58 -107 31 -54
59 -101 61 -107 2 -5 13 -22 23 -37 11 -16 16 -28 11 -28 -4 0 -3 -4 3 -8 6
-4 32 -45 58 -92 55 -97 73 -127 110 -190 15 -25 29 -53 33 -62 3 -10 10 -18
15 -18 5 0 7 -4 4 -9 -3 -5 1 -14 9 -21 8 -7 15 -19 15 -26 0 -8 3 -14 8 -14
4 0 14 -15 21 -32 8 -18 36 -68 63 -111 26 -43 48 -80 48 -81 0 -2 41 -74 90
-159 50 -86 90 -161 90 -167 0 -5 4 -10 8 -10 4 0 20 -24 36 -52 15 -29 39
-71 52 -93 13 -22 27 -47 31 -55 4 -8 23 -42 43 -75 34 -56 72 -124 116 -205
11 -19 22 -36 27 -38 4 -2 7 -8 7 -14 0 -5 12 -28 28 -51 15 -23 38 -64 52
-92 14 -27 28 -52 31 -55 3 -3 34 -54 68 -115 35 -60 73 -126 84 -145 11 -19
31 -55 45 -80 13 -25 46 -81 72 -125 26 -44 59 -100 72 -125 50 -91 70 -125
78 -135 9 -12 45 -75 73 -130 12 -22 24 -42 27 -45 4 -3 26 -41 50 -85 24 -44
50 -91 59 -105 30 -47 41 -65 59 -100 40 -75 57 -105 70 -118 6 -7 12 -20 12
-28 0 -8 4 -14 8 -14 5 0 14 -16 22 -35 8 -19 17 -35 20 -35 3 0 12 -16 20
-35 8 -19 17 -35 22 -35 4 0 8 -6 8 -14 0 -7 7 -19 15 -26 8 -7 12 -16 9 -21
-3 -5 0 -9 5 -9 6 0 11 -7 11 -15 0 -8 5 -15 10 -15 6 0 10 -9 10 -20 0 -11 5
-20 10 -20 6 0 10 -4 10 -10 0 -5 18 -39 40 -75 22 -36 40 -69 40 -74 0 -5 7
-14 15 -21 8 -7 13 -16 10 -20 -3 -5 -2 -10 3 -12 9 -3 49 -71 126 -213 6 -11
13 -22 16 -25 3 -3 16 -25 29 -50 13 -25 30 -52 38 -61 7 -9 10 -19 6 -22 -3
-4 -2 -7 4 -7 6 0 18 -18 27 -40 9 -22 20 -40 26 -40 5 0 10 -9 10 -19 0 -11
4 -22 9 -26 6 -3 16 -18 24 -33 7 -15 23 -43 34 -62 11 -19 58 -100 104 -180
46 -80 87 -146 91 -148 4 -2 8 -9 8 -15 0 -12 90 -171 108 -193 5 -6 13 -20
16 -32 4 -12 13 -28 19 -34 7 -7 21 -31 33 -53 12 -22 44 -80 73 -128 28 -49
51 -93 51 -98 0 -5 5 -9 10 -9 6 0 10 -4 10 -9 0 -13 82 -155 92 -159 5 -2 6
-8 2 -13 -3 -5 0 -9 6 -9 6 0 8 -4 5 -10 -3 -5 -3 -10 2 -10 4 0 14 -15 22
-32 7 -18 19 -38 25 -43 6 -6 27 -41 45 -78 19 -37 39 -67 43 -67 4 0 8 -9 8
-20 0 -11 5 -20 11 -20 5 0 7 -4 4 -10 -3 -5 -2 -10 2 -10 5 0 17 -17 28 -37
11 -21 49 -87 84 -148 35 -60 77 -135 94 -165 17 -30 34 -56 39 -58 4 -2 8
-12 8 -23 0 -10 5 -19 10 -19 6 0 10 -4 10 -9 0 -5 18 -39 40 -75 22 -36 40
-70 40 -75 0 -5 4 -11 9 -13 5 -1 11 -10 13 -18 2 -8 5 -17 8 -20 7 -6 60 -97
60 -102 0 -2 -181 -2 -403 -1 -221 1 -1260 3 -2308 3 l-1907 2 -18 34 c-10 19
-22 34 -26 34 -5 0 -8 7 -8 16 0 9 -9 27 -20 41 -11 14 -20 32 -20 39 0 8 -3
14 -8 14 -4 0 -18 21 -32 48 -13 26 -46 82 -72 125 -26 42 -44 77 -41 77 3 0
0 7 -7 15 -18 22 -100 167 -100 177 0 4 -3 8 -7 8 -5 0 -17 19 -28 43 -11 23
-22 44 -25 47 -6 5 -28 44 -93 160 -17 30 -34 57 -39 58 -4 2 -8 8 -8 13 0 6
-21 46 -46 89 -25 44 -45 82 -44 86 1 4 -2 10 -7 13 -13 9 -58 85 -55 94 1 4
-2 7 -8 7 -5 0 -10 6 -10 13 0 7 -8 22 -17 33 -10 11 -19 26 -21 34 -2 8 -9
22 -15 30 -7 8 -18 26 -26 39 -7 14 -24 43 -36 65 -13 23 -80 139 -149 260
-69 120 -126 222 -126 227 0 5 -4 9 -9 9 -5 0 -11 8 -14 18 -9 27 -78 146 -89
153 -5 3 -10 12 -12 20 -2 12 -24 53 -64 114 -6 11 -17 31 -23 45 -5 13 -13
27 -17 30 -4 3 -18 26 -32 53 -13 26 -28 47 -32 47 -5 0 -7 4 -6 8 2 4 -19 46
-47 92 -48 82 -75 129 -111 198 -10 17 -21 32 -26 32 -4 0 -8 9 -8 19 0 11 -6
26 -13 33 -12 12 -66 104 -91 155 -6 13 -14 23 -18 23 -5 0 -8 7 -8 15 0 8 -7
23 -15 32 -8 10 -14 21 -13 24 2 4 -4 15 -13 25 -9 11 -27 39 -40 64 -13 25
-27 47 -30 50 -3 3 -12 20 -20 38 -8 17 -17 32 -21 32 -5 0 -8 4 -8 9 0 7 -93
173 -110 196 -4 6 -21 35 -37 65 -66 122 -86 156 -99 171 -8 8 -14 18 -14 21
0 4 -22 45 -50 93 -27 48 -50 91 -50 96 0 5 -4 9 -10 9 -5 0 -10 5 -10 11 0 6
-13 30 -28 53 -15 22 -34 56 -41 74 -7 17 -16 32 -20 32 -4 0 -12 12 -18 28
-19 43 -74 136 -87 144 -6 4 -8 8 -4 8 4 0 -6 22 -22 49 -17 26 -30 51 -30 55
0 4 -5 12 -10 19 -23 26 -78 126 -72 131 3 3 0 6 -6 6 -6 0 -14 9 -17 21 -4
11 -28 55 -54 97 -26 42 -58 98 -71 125 -14 26 -28 47 -32 47 -5 0 -8 5 -8 11
0 6 -22 48 -50 95 -27 47 -50 87 -50 89 0 4 -39 66 -57 90 -5 6 -9 15 -10 21
-1 5 -20 40 -42 77 -23 36 -41 69 -41 71 0 3 -26 49 -59 103 -104 174 -181
312 -181 322 0 6 -5 11 -11 11 -5 0 -8 4 -5 9 4 5 2 11 -3 13 -5 1 -35 50 -67
107 -33 57 -74 129 -92 160 -18 31 -35 64 -39 74 -3 9 -10 17 -15 17 -5 0 -6
5 -3 10 3 6 2 10 -3 10 -7 0 -43 60 -86 147 -6 13 -14 23 -18 23 -5 0 -8 4 -8
10 0 5 -31 63 -70 129 -38 66 -70 125 -70 131 0 5 -4 10 -9 10 -5 0 -15 15
-22 33 -7 17 -19 38 -26 45 -14 15 -17 10 100 209 31 55 57 105 57 111 0 7 3
12 8 12 4 0 18 21 32 48 14 26 30 53 37 60 7 7 13 20 13 28 0 8 5 14 10 14 6
0 10 6 11 13 0 6 14 32 29 57 16 25 39 65 51 90 12 25 25 47 29 50 4 3 15 21
25 40 10 19 21 37 24 40 3 3 15 24 26 47 11 24 23 43 27 43 3 0 11 12 17 28 6
15 23 48 38 73 16 26 45 78 67 115 21 38 41 71 45 74 3 3 12 17 18 32 7 15 25
46 40 70 15 24 27 46 28 50 0 4 6 13 13 19 6 7 12 17 12 21 0 4 17 36 38 70
21 35 41 70 45 78 4 8 16 29 27 45 10 17 31 54 47 83 15 28 31 52 35 52 4 0 8
9 8 19 0 11 4 21 8 23 5 2 26 35 47 73 21 39 47 82 57 98 11 15 17 27 13 27
-3 0 -1 6 5 13 23 25 107 176 102 182 -3 3 -1 5 4 5 5 0 25 29 44 65 19 36 38
65 43 65 4 0 6 4 3 9 -3 5 1 14 9 21 8 7 15 16 15 20 0 5 27 54 60 110 33 56
60 105 60 109 0 4 8 16 18 27 9 11 28 42 42 69 13 28 27 52 30 55 4 3 26 41
50 85 24 44 47 82 52 83 4 2 8 8 8 14 0 11 77 145 97 169 7 9 10 19 6 22 -3 4
-1 7 5 7 7 0 12 4 12 9 0 5 39 76 86 158 82 140 104 178 136 234 7 13 15 26
18 29 3 3 12 19 21 35 29 56 44 80 54 87 6 4 7 8 3 8 -4 0 7 24 25 53 19 28
37 59 40 67 4 8 17 31 28 50 12 19 33 55 47 80 14 25 33 57 43 72 11 14 19 28
19 31 0 3 33 62 74 131 41 69 72 126 68 126 -4 0 1 5 11 11 9 6 15 14 12 20
-4 5 -3 9 2 9 4 0 17 19 28 43 11 23 23 44 26 47 9 7 40 68 38 76 0 4 4 10 9
13 11 7 122 199 122 211 0 5 4 10 8 12 7 3 48 71 120 199 11 20 26 47 34 60 7
13 15 26 18 29 3 3 16 26 29 53 13 26 29 47 34 47 6 0 7 3 4 7 -4 3 0 15 10
25 9 10 12 18 7 18 -5 0 -4 4 2 8 5 4 31 45 57 92 27 47 52 92 57 100 46 76
109 185 132 229 15 30 28 51 28 46 0 -5 13 16 29 46 37 71 153 273 160 279 3
3 14 21 25 40 41 79 80 146 97 171 10 15 23 37 29 50 6 13 29 53 50 89 22 36
45 77 51 93 6 15 15 27 20 27 5 0 9 4 9 9 0 13 82 155 92 159 4 2 8 12 8 23 0
10 3 19 8 19 4 0 18 21 32 48 30 58 33 59 76 57 19 -2 37 2 40 7 4 6 10 6 17
-1 7 -7 14 -7 24 0z m12538 -8 c126 0 192 4 197 11 6 8 8 8 8 0 0 -12 290 -13
3022 -14 l1136 0 56 -96 c31 -52 56 -99 56 -105 0 -5 5 -9 10 -9 6 0 10 -4 10
-9 0 -5 16 -38 36 -73 20 -34 48 -83 62 -108 13 -25 29 -51 35 -57 5 -7 6 -13
1 -13 -5 0 -1 -5 9 -11 9 -5 17 -17 17 -24 0 -8 5 -15 12 -15 6 0 8 -3 5 -6
-4 -4 2 -19 12 -33 17 -25 40 -63 104 -181 17 -30 33 -57 36 -60 3 -3 11 -14
17 -25 46 -86 60 -111 64 -115 3 -3 12 -18 20 -35 8 -16 18 -32 21 -35 3 -3
13 -18 21 -35 44 -84 59 -109 74 -126 9 -11 13 -19 9 -19 -4 0 -2 -8 6 -17 14
-18 22 -32 66 -112 14 -25 31 -53 39 -61 7 -8 14 -19 15 -25 4 -20 22 -55 29
-55 3 0 12 -16 20 -35 8 -19 17 -35 22 -35 4 0 8 -4 8 -9 0 -5 23 -49 51 -98
29 -48 61 -106 73 -128 12 -22 23 -42 26 -45 3 -3 11 -16 18 -29 8 -13 22 -38
31 -55 10 -17 33 -58 51 -91 19 -33 36 -62 40 -65 3 -3 12 -18 20 -35 8 -16
17 -32 21 -35 3 -3 13 -21 22 -40 10 -19 26 -48 37 -65 21 -33 34 -56 73 -129
15 -27 31 -54 36 -60 4 -6 21 -33 36 -61 16 -27 39 -68 51 -90 13 -22 29 -51
37 -65 20 -36 49 -87 86 -148 17 -29 31 -57 31 -62 0 -6 3 -10 8 -10 4 0 12
-10 18 -23 15 -33 58 -111 64 -117 3 -3 11 -16 19 -30 8 -14 27 -47 43 -75 16
-27 32 -58 35 -67 3 -10 9 -18 14 -18 5 0 9 -6 9 -14 0 -8 6 -21 13 -28 6 -8
20 -29 30 -48 35 -65 52 -95 57 -100 3 -3 11 -16 18 -30 6 -14 16 -32 22 -40
25 -38 110 -193 110 -201 0 -5 5 -9 10 -9 6 0 10 -5 10 -11 0 -6 9 -23 20 -39
11 -15 17 -30 13 -34 -3 -3 -2 -6 4 -6 5 0 18 -18 28 -40 10 -22 22 -40 27
-40 5 0 6 -4 3 -10 -3 -5 -1 -10 5 -10 6 0 8 -4 5 -10 -3 -5 -2 -10 2 -10 5 0
22 -25 38 -56 17 -30 35 -63 40 -73 6 -9 37 -64 70 -121 33 -58 63 -106 67
-108 4 -2 8 -10 8 -17 0 -8 7 -21 16 -29 8 -9 13 -16 9 -16 -3 0 3 -13 14 -29
12 -16 21 -32 21 -35 0 -10 64 -111 72 -114 5 -2 6 -8 2 -13 -3 -5 0 -9 6 -9
6 0 8 -4 5 -10 -3 -5 -1 -10 5 -10 6 0 9 -4 6 -9 -4 -5 -3 -11 2 -13 9 -4 92
-147 92 -159 0 -5 4 -9 8 -9 4 0 13 -12 20 -27 15 -35 72 -136 81 -143 3 -3
17 -27 31 -55 13 -27 27 -52 30 -55 3 -3 21 -32 40 -65 18 -33 42 -76 53 -95
11 -19 27 -47 34 -62 8 -16 19 -28 24 -28 5 0 8 -3 7 -7 -2 -10 17 -51 42 -88
11 -16 23 -37 27 -45 30 -58 96 -171 104 -175 5 -4 7 -11 4 -16 -4 -5 -2 -9 3
-9 5 0 12 -8 15 -17 7 -22 50 -98 66 -116 6 -8 8 -17 4 -20 -3 -4 -1 -7 5 -7
7 0 19 -18 28 -40 9 -22 20 -40 25 -40 5 0 9 -5 9 -11 0 -6 41 -80 90 -165 50
-84 90 -158 90 -164 0 -5 3 -10 8 -10 4 0 13 -15 21 -32 8 -18 19 -40 26 -48
12 -15 50 -81 89 -154 12 -22 25 -45 29 -50 18 -24 105 -176 100 -176 -2 0 5
-12 16 -26 l20 -25 -21 -37 c-11 -20 -39 -68 -61 -107 -50 -85 -64 -109 -102
-180 -16 -30 -33 -55 -37 -55 -4 0 -8 -7 -8 -15 0 -9 -9 -25 -20 -37 -10 -12
-17 -25 -14 -30 3 -4 1 -8 -4 -8 -5 0 -12 -8 -15 -17 -6 -17 -42 -82 -74 -132
-8 -12 -29 -48 -46 -80 -16 -31 -33 -58 -36 -61 -3 -3 -13 -18 -21 -35 -8 -16
-17 -32 -20 -35 -3 -3 -18 -30 -34 -60 -17 -30 -44 -78 -62 -106 -18 -29 -30
-54 -27 -58 4 -3 1 -6 -5 -6 -7 0 -12 -7 -12 -15 0 -8 -3 -15 -7 -15 -5 0 -17
-19 -28 -43 -11 -23 -22 -44 -25 -47 -12 -10 -100 -169 -100 -180 0 -5 -4 -10
-10 -10 -5 0 -10 -7 -10 -15 0 -8 -4 -15 -10 -15 -5 0 -10 -4 -10 -10 0 -5
-22 -48 -50 -96 -27 -48 -50 -91 -50 -95 0 -5 -4 -9 -10 -9 -5 0 -10 -6 -10
-14 0 -7 -7 -19 -15 -26 -8 -7 -15 -21 -15 -31 0 -11 -4 -19 -8 -19 -4 0 -18
-19 -30 -42 -12 -24 -36 -65 -53 -93 -16 -27 -37 -65 -45 -82 -8 -18 -19 -33
-26 -33 -6 0 -9 -3 -6 -6 5 -4 -74 -149 -122 -224 -5 -8 -19 -33 -31 -55 -12
-22 -33 -58 -47 -80 -14 -22 -25 -42 -24 -45 0 -3 -5 -12 -11 -20 -7 -8 -18
-26 -26 -40 -8 -14 -36 -63 -63 -109 -26 -46 -48 -88 -48 -92 0 -5 -3 -9 -8
-9 -4 0 -15 -18 -25 -40 -9 -22 -22 -40 -29 -40 -6 0 -8 -3 -5 -6 4 -4 -2 -19
-11 -33 -10 -14 -27 -43 -37 -63 -11 -21 -23 -38 -28 -38 -4 0 -6 -4 -2 -9 3
-5 -2 -16 -10 -24 -8 -9 -15 -18 -15 -20 0 -3 -26 -50 -58 -104 -32 -54 -61
-105 -65 -113 -4 -8 -11 -22 -17 -30 -22 -34 -130 -223 -146 -255 -9 -19 -21
-32 -27 -28 -6 4 -7 1 -2 -7 4 -7 3 -15 -2 -19 -5 -3 -29 -42 -53 -86 -23 -44
-48 -83 -54 -87 -6 -4 -7 -8 -2 -8 5 0 1 -9 -9 -20 -10 -11 -15 -20 -11 -20 4
0 -2 -10 -14 -22 -11 -12 -20 -28 -20 -35 0 -7 -5 -13 -10 -13 -6 0 -9 -3 -8
-7 2 -12 -24 -63 -33 -63 -4 0 -10 -14 -14 -30 -4 -16 -10 -30 -14 -30 -4 0
-18 -22 -32 -50 -13 -27 -27 -50 -31 -50 -5 0 -8 -7 -8 -15 0 -8 -5 -15 -12
-15 -6 0 -9 -3 -5 -6 3 -4 -1 -13 -9 -21 -8 -8 -12 -19 -9 -24 4 -5 2 -9 -4
-9 -5 0 -19 -21 -32 -47 -12 -27 -26 -50 -29 -53 -4 -3 -13 -17 -21 -32 -8
-15 -36 -67 -64 -115 -27 -48 -49 -91 -47 -95 1 -4 -3 -8 -8 -8 -6 0 -18 -17
-28 -37 -9 -21 -20 -40 -23 -43 -4 -3 -19 -30 -35 -60 -15 -30 -39 -70 -52
-87 -13 -18 -21 -33 -18 -33 4 0 -4 -15 -18 -33 -15 -19 -26 -41 -26 -50 0 -9
-6 -20 -13 -24 -7 -4 -18 -19 -24 -33 -7 -14 -24 -43 -38 -65 -14 -22 -28 -47
-32 -55 -14 -34 -118 -206 -128 -212 -5 -4 -6 -8 -2 -8 5 0 0 -12 -10 -28 -37
-56 -44 -67 -49 -84 -4 -10 -10 -18 -15 -18 -5 0 -9 -6 -9 -13 0 -8 -18 -41
-39 -75 -22 -33 -37 -63 -34 -66 4 -3 2 -6 -4 -6 -6 0 -13 -8 -17 -17 -3 -10
-19 -40 -36 -68 -16 -27 -33 -57 -37 -65 -3 -8 -9 -17 -12 -20 -6 -5 -19 -28
-72 -125 -12 -22 -27 -43 -33 -47 -6 -4 -7 -8 -2 -8 5 0 4 -6 -2 -12 -5 -7
-19 -29 -30 -48 -42 -75 -135 -236 -147 -255 -7 -11 -12 -23 -11 -27 1 -3 -8
-17 -20 -30 -11 -13 -29 -41 -39 -63 -10 -22 -21 -42 -24 -45 -4 -3 -18 -26
-31 -52 -14 -27 -28 -48 -32 -48 -5 0 -8 -7 -8 -15 0 -9 -9 -25 -20 -37 -11
-12 -20 -30 -20 -40 0 -10 -4 -18 -9 -18 -5 0 -14 -13 -21 -30 -7 -16 -17 -30
-23 -30 -6 0 -8 -3 -4 -6 9 -10 -52 -101 -71 -106 -9 -2 -696 -3 -1527 -1
-830 1 -1856 3 -2280 4 -423 0 -774 3 -778 6 -5 3 0 14 10 26 13 14 14 18 3
13 -9 -4 -8 -2 3 7 9 8 17 19 17 25 0 6 3 12 8 14 4 2 16 21 27 43 11 22 26
46 32 53 7 7 13 20 13 28 0 8 5 14 10 14 6 0 10 5 10 11 0 6 9 24 21 40 11 16
17 29 12 29 -4 0 -3 4 3 8 6 4 25 32 41 62 17 30 51 89 75 130 24 41 47 82 51
90 4 8 16 29 26 45 47 76 121 209 121 216 0 5 3 9 8 9 4 0 15 18 25 40 9 22
22 40 29 40 6 0 8 3 5 6 -4 4 2 19 11 33 10 14 27 43 37 64 11 20 23 37 28 37
4 0 6 4 2 9 -3 5 0 16 7 23 17 18 33 45 55 88 9 19 31 58 48 85 18 28 35 57
38 65 4 8 11 22 17 30 8 12 93 158 151 260 8 14 19 28 24 32 7 5 7 8 0 8 -5 0
-1 7 9 15 11 8 17 15 13 15 -3 0 8 24 25 52 17 29 40 69 50 88 11 19 25 41 30
48 6 6 7 12 4 12 -4 0 2 10 14 22 11 12 20 28 20 35 0 7 5 13 11 13 5 0 8 4 4
9 -3 5 -1 12 4 16 5 3 16 18 24 33 15 30 40 73 81 142 15 25 29 53 33 63 3 9
9 17 13 17 4 0 10 10 14 23 3 12 14 31 24 42 21 23 21 23 28 53 4 12 10 22 14
22 5 0 13 12 19 28 6 15 35 68 65 117 29 50 52 93 49 98 -2 4 1 7 7 7 5 0 18
17 28 38 9 20 20 39 23 42 3 3 21 33 40 68 18 34 41 71 51 81 9 11 14 22 10
25 -3 4 -2 10 3 14 6 4 16 17 23 30 6 12 18 32 25 45 6 12 14 24 17 27 5 5 12
17 55 96 14 27 35 63 46 79 10 17 22 37 26 45 29 56 88 156 95 158 4 2 8 8 8
14 0 6 20 44 45 85 25 40 45 78 45 83 0 5 6 15 13 22 7 7 33 49 57 93 25 44
50 89 57 100 7 11 16 28 19 38 3 9 10 17 15 17 5 0 9 7 9 15 0 8 5 15 11 15 5
0 8 4 5 9 -3 5 3 20 14 34 11 14 20 30 20 35 0 6 6 17 13 24 7 7 20 27 29 43
17 35 113 203 128 225 6 8 14 25 20 38 5 12 14 22 20 22 5 0 9 3 8 8 -3 10 39
89 52 97 6 4 8 10 6 14 -3 4 4 17 14 29 11 12 20 28 20 37 0 8 5 15 11 15 5 0
7 5 4 10 -3 6 -2 10 3 10 5 0 17 18 27 40 10 22 22 40 27 40 4 0 8 7 8 15 0 9
9 25 20 37 11 12 20 30 20 40 0 10 4 18 9 18 5 0 14 14 21 30 7 17 16 30 21
30 5 0 8 3 7 8 -3 9 63 126 74 130 4 2 8 12 8 23 0 10 5 19 10 19 6 0 10 7 10
15 0 8 5 15 10 15 6 0 9 3 8 8 -3 7 56 116 77 142 7 8 25 40 41 70 16 30 32
57 37 58 4 2 7 8 7 13 0 5 17 38 38 72 21 35 42 70 46 77 4 8 12 24 19 35 7
11 30 52 52 90 21 39 44 73 49 77 7 5 7 8 1 8 -7 0 -7 3 0 8 10 7 37 54 72
122 10 19 21 37 24 40 4 3 17 23 29 45 12 22 30 56 42 75 11 19 30 53 41 75
12 22 24 42 27 45 11 11 140 241 140 250 0 6 4 10 10 10 5 0 18 20 28 44 11
24 25 47 31 50 6 4 9 12 6 17 -4 5 -1 9 4 9 6 0 11 5 11 10 0 6 12 29 27 53
15 23 26 45 25 50 -1 4 3 7 10 7 6 0 8 3 5 7 -4 3 5 22 19 41 l27 34 -21 42
c-12 22 -35 64 -52 91 -16 28 -37 66 -47 85 -9 19 -20 37 -23 40 -10 9 -90
152 -90 161 0 5 -4 9 -10 9 -5 0 -10 9 -10 19 0 11 -4 21 -9 23 -7 3 -26 35
-85 143 -6 11 -14 22 -17 25 -3 3 -19 30 -36 60 -53 97 -91 164 -127 224 -20
33 -38 68 -42 78 -3 10 -10 18 -15 18 -5 0 -9 6 -9 13 0 7 -11 29 -25 50 -14
20 -22 37 -18 37 4 0 3 4 -3 8 -6 4 -21 27 -35 52 -13 25 -27 47 -30 50 -4 3
-9 15 -13 28 -4 12 -12 22 -17 22 -5 0 -9 9 -9 20 0 11 -3 20 -8 20 -4 0 -16
17 -27 38 -11 20 -45 80 -75 132 -30 52 -64 112 -75 133 -11 20 -23 37 -28 37
-4 0 -5 5 -2 10 3 6 2 10 -2 10 -5 0 -14 12 -20 28 -7 15 -25 50 -42 77 -17
28 -40 68 -52 90 -12 22 -26 43 -31 46 -5 3 -9 9 -9 13 1 6 -23 55 -46 91 -7
11 -16 28 -19 38 -3 9 -9 17 -13 17 -4 0 -13 16 -21 35 -8 19 -18 35 -22 35
-5 0 -6 5 -3 10 3 6 2 10 -3 10 -6 0 -15 12 -21 28 -11 27 -31 63 -42 72 -3 3
-13 21 -22 40 -10 19 -22 42 -27 50 -33 50 -100 172 -100 180 0 6 -4 10 -10
10 -5 0 -10 4 -10 9 0 4 -22 46 -48 92 -27 46 -55 95 -63 109 -8 14 -18 28
-24 32 -5 4 -6 8 -1 8 5 0 2 8 -6 18 -8 9 -18 24 -22 32 -3 8 -16 31 -27 50
-12 19 -37 64 -57 100 -19 36 -39 67 -44 68 -4 2 -8 12 -8 23 0 10 -4 19 -9
19 -5 0 -19 19 -31 43 -40 76 -68 128 -78 140 -5 7 -21 33 -35 59 -83 150
-313 544 -319 546 -5 2 -6 8 -2 13 3 5 0 9 -6 9 -6 0 -9 4 -5 9 3 5 1 12 -4
15 -8 6 -36 52 -99 166 -13 25 -30 52 -37 60 -6 8 -17 30 -25 48 -7 17 -15 32
-19 32 -3 0 -12 14 -20 30 -7 17 -38 72 -68 123 -31 51 -58 99 -61 107 -3 8
-14 25 -25 38 -11 12 -17 22 -14 22 4 0 -15 35 -41 78 -45 72 -65 112 -62 121
1 2 -3 7 -8 10 -5 3 -20 25 -33 48 -13 23 -98 171 -189 329 -91 158 -166 293
-168 301 -2 7 -8 13 -13 13 -5 0 -9 6 -9 14 0 7 -7 19 -15 26 -8 7 -12 16 -9
21 3 5 0 9 -5 9 -6 0 -11 4 -11 9 0 4 -23 48 -51 97 -29 49 -63 109 -77 134
-13 25 -28 50 -32 55 -4 6 -19 31 -33 56 -41 75 -52 94 -57 99 -3 3 -14 23
-26 45 -31 59 -74 135 -101 177 -12 21 -23 40 -23 43 0 3 -11 22 -23 43 -13
20 -41 69 -62 107 -21 39 -42 72 -46 75 -9 7 -33 62 -31 73 1 4 -2 7 -7 7 -5
0 -14 14 -21 30 -7 17 -17 30 -22 30 -5 0 -7 4 -3 9 3 5 -2 16 -10 24 -16 17
-21 42 -6 32 5 -3 13 -1 16 5 4 7 11 8 18 2 7 -5 98 -9 202 -9z m-4127 -1478
c12 -19 22 -37 22 -40 0 -2 16 -29 35 -59 19 -30 35 -58 35 -61 0 -3 15 -30
34 -60 19 -29 32 -56 29 -59 -4 -3 -2 -6 4 -6 6 0 16 -12 22 -27 6 -16 16 -37
23 -48 7 -11 20 -31 29 -45 9 -14 33 -56 54 -95 21 -38 41 -72 44 -75 3 -3 15
-23 27 -45 12 -22 49 -89 84 -150 35 -60 72 -128 84 -150 12 -22 24 -42 27
-45 6 -5 64 -108 83 -147 6 -13 14 -23 19 -23 4 0 7 -5 7 -11 0 -6 9 -24 21
-40 11 -16 17 -29 13 -29 -4 0 -1 -8 7 -17 8 -10 21 -30 29 -45 7 -16 17 -28
22 -28 4 0 8 -9 8 -20 0 -11 3 -20 8 -20 4 0 12 -10 18 -23 31 -62 48 -92 53
-97 8 -7 45 -64 46 -70 0 -3 26 -48 57 -100 30 -52 65 -113 77 -135 27 -49 44
-78 51 -85 3 -3 13 -21 23 -40 10 -19 29 -53 42 -75 14 -22 28 -47 32 -55 4
-8 26 -48 50 -88 24 -40 43 -77 43 -82 0 -6 4 -10 9 -10 5 0 11 -8 14 -17 8
-25 50 -97 62 -105 6 -4 6 -8 2 -8 -4 0 6 -20 23 -44 16 -25 30 -49 30 -54 0
-6 3 -12 8 -14 6 -3 33 -49 81 -143 9 -16 18 -32 21 -35 11 -9 58 -95 56 -101
0 -4 6 -15 15 -25 20 -23 139 -233 139 -245 0 -5 5 -9 10 -9 6 0 10 -7 10 -15
0 -8 3 -15 8 -15 4 0 15 -17 25 -37 17 -37 22 -47 82 -148 17 -27 30 -52 30
-55 1 -6 28 -51 56 -92 11 -15 19 -29 19 -32 0 -3 32 -59 70 -125 39 -66 70
-125 70 -130 0 -5 4 -11 8 -13 11 -4 112 -182 112 -197 0 -6 4 -11 9 -11 5 0
13 -10 17 -22 4 -13 10 -25 13 -28 4 -3 25 -36 46 -75 21 -38 42 -73 47 -76 6
-3 8 -8 7 -10 -4 -6 111 -208 122 -215 5 -3 7 -10 4 -15 -4 -5 -1 -9 4 -9 6 0
11 -4 11 -10 0 -9 58 -110 69 -120 4 -3 7 -11 9 -18 1 -7 14 -32 29 -55 15
-23 38 -62 51 -86 13 -24 33 -58 43 -75 11 -17 25 -43 31 -58 7 -16 16 -28 20
-28 4 0 8 -4 8 -9 0 -12 83 -155 92 -159 5 -2 6 -8 2 -13 -3 -5 0 -9 6 -9 6 0
8 -4 5 -10 -3 -5 -1 -10 4 -10 6 0 11 -5 11 -11 0 -6 8 -23 18 -37 11 -15 36
-58 56 -95 36 -66 37 -70 20 -88 -9 -10 -13 -19 -8 -19 5 0 4 -4 -2 -8 -6 -4
-24 -32 -40 -62 -16 -30 -31 -57 -34 -60 -12 -11 -40 -60 -35 -60 4 0 -3 -12
-14 -26 -12 -15 -21 -33 -21 -40 0 -8 -3 -14 -8 -14 -4 0 -16 -17 -27 -37 -11
-21 -37 -66 -57 -101 -21 -34 -38 -66 -38 -70 0 -5 -9 -18 -20 -30 -12 -12
-18 -22 -14 -22 3 0 2 -6 -4 -12 -9 -12 -25 -39 -81 -138 -13 -25 -30 -48 -35
-52 -6 -4 -8 -8 -4 -8 4 0 -15 -36 -42 -81 -28 -44 -50 -84 -50 -89 0 -5 -6
-15 -13 -22 -6 -7 -21 -31 -32 -53 -11 -22 -23 -42 -26 -45 -3 -3 -14 -21 -24
-40 -9 -19 -23 -42 -30 -50 -8 -8 -15 -19 -16 -25 -1 -5 -7 -19 -14 -30 -45
-74 -115 -198 -115 -206 0 -5 -4 -9 -9 -9 -5 0 -14 -12 -20 -27 -6 -16 -24
-50 -41 -78 -17 -27 -36 -61 -42 -75 -7 -14 -23 -39 -35 -56 -13 -17 -20 -34
-16 -37 3 -4 2 -7 -4 -7 -5 0 -22 -24 -37 -52 -42 -82 -60 -113 -68 -116 -5
-2 -8 -8 -8 -13 0 -4 -22 -46 -49 -91 -27 -46 -59 -101 -71 -123 -75 -134
-185 -321 -193 -326 -5 -3 -9 -10 -9 -15 0 -9 -77 -144 -88 -154 -3 -3 -6 -12
-8 -20 -2 -8 -11 -23 -19 -32 -9 -10 -12 -18 -7 -18 5 0 4 -4 -1 -8 -13 -9
-81 -123 -90 -151 -3 -12 -11 -21 -16 -21 -5 0 -9 -4 -9 -9 0 -4 -30 -60 -67
-122 -37 -63 -75 -130 -86 -149 -10 -19 -27 -48 -38 -65 -10 -16 -22 -37 -25
-45 -4 -8 -14 -23 -22 -32 -8 -10 -12 -18 -7 -18 4 0 2 -7 -5 -15 -17 -21
-160 -267 -160 -276 0 -4 -6 -14 -13 -21 -16 -17 -147 -248 -147 -259 0 -5 -4
-9 -10 -9 -5 0 -10 -5 -10 -10 0 -6 -11 -27 -23 -48 -13 -20 -35 -57 -49 -82
-51 -91 -111 -196 -125 -217 -7 -13 -13 -25 -13 -28 0 -3 -6 -13 -15 -21 -8
-9 -15 -22 -15 -30 0 -8 -3 -14 -7 -14 -5 0 -13 -10 -19 -23 -29 -60 -69 -127
-76 -127 -4 0 -8 -9 -8 -20 0 -11 -5 -20 -11 -20 -5 0 -7 -4 -4 -10 3 -5 2
-10 -3 -10 -5 0 -17 -18 -27 -40 -10 -22 -22 -40 -27 -40 -4 0 -8 -7 -8 -15 0
-9 -9 -25 -20 -37 -11 -12 -20 -30 -20 -40 0 -10 -4 -18 -9 -18 -5 0 -14 -13
-21 -30 -7 -16 -17 -30 -23 -30 -6 0 -8 -3 -5 -6 4 -3 -14 -39 -38 -80 -24
-41 -44 -79 -44 -84 0 -6 -4 -10 -10 -10 -5 0 -10 -7 -10 -15 0 -8 -4 -15 -10
-15 -5 0 -10 -6 -10 -13 0 -8 -17 -40 -38 -73 -21 -32 -40 -63 -42 -69 -2 -5
-13 -25 -23 -43 -17 -28 -22 -31 -29 -18 -5 8 -8 19 -8 22 1 4 -3 10 -8 13 -6
3 -12 13 -14 21 -2 8 -11 23 -21 32 -10 9 -18 19 -18 22 1 12 -33 76 -41 76
-4 0 -8 5 -8 11 0 6 -22 49 -50 96 -27 47 -50 89 -50 94 0 5 -5 9 -10 9 -6 0
-9 3 -8 8 1 4 -5 18 -14 32 -35 55 -168 292 -168 301 0 5 -4 9 -10 9 -5 0 -10
5 -10 10 0 6 -11 27 -23 48 -13 20 -35 57 -49 82 -43 77 -70 124 -89 155 -11
17 -26 44 -34 60 -9 17 -29 53 -46 80 -16 28 -33 58 -36 68 -3 9 -9 17 -14 17
-4 0 -13 16 -20 35 -7 19 -17 35 -21 35 -4 0 -8 4 -8 10 0 5 -17 38 -38 72
-21 35 -41 70 -45 78 -4 8 -18 33 -32 55 -14 22 -28 47 -32 55 -4 8 -53 95
-110 192 -57 98 -103 182 -103 188 0 5 -3 10 -7 10 -5 0 -17 18 -27 40 -11 22
-23 40 -28 40 -4 0 -8 9 -8 20 0 11 -5 20 -11 20 -5 0 -7 5 -4 10 3 6 2 10 -3
10 -5 0 -12 8 -15 18 -8 24 -50 96 -59 100 -5 2 -8 7 -8 12 0 5 -20 43 -45 84
-25 42 -45 81 -45 86 0 6 -4 10 -9 10 -5 0 -11 8 -14 18 -9 26 -76 144 -94
165 -9 9 -12 17 -7 17 5 0 5 4 -1 8 -5 4 -21 27 -34 52 -14 25 -29 48 -35 52
-6 4 -7 8 -2 8 5 0 2 8 -6 18 -19 22 -105 174 -118 207 -5 14 -14 25 -20 25
-5 0 -10 9 -10 19 0 11 -4 21 -8 23 -4 2 -37 54 -72 117 -36 63 -78 135 -93
160 -15 25 -32 58 -38 74 -6 15 -15 27 -20 27 -5 0 -9 5 -9 11 0 6 -9 23 -20
39 -11 15 -17 30 -13 34 3 3 1 6 -5 6 -7 0 -12 4 -12 9 0 5 -25 50 -55 100
-30 51 -55 95 -55 100 0 4 -8 16 -17 27 -10 11 -19 25 -21 32 -1 7 -14 31 -28
53 -24 38 -34 57 -85 147 -12 20 -38 66 -59 102 -41 71 -70 121 -109 190 -14
25 -29 47 -33 48 -4 2 -8 8 -8 14 0 5 -34 68 -75 139 -41 71 -75 133 -75 139
0 5 -4 10 -9 10 -5 0 -15 16 -22 35 -7 19 -17 35 -21 35 -4 0 -8 7 -8 15 0 8
-3 15 -8 15 -4 0 -13 14 -21 31 -16 37 -116 208 -131 227 -6 6 -8 12 -4 12 4
0 0 8 -8 18 -8 9 -18 24 -22 32 -3 8 -16 31 -27 50 -59 96 -71 123 -59 130 6
4 11 10 11 14 -2 6 58 112 98 176 8 14 15 28 14 32 -2 3 4 12 12 18 8 7 15 18
15 25 0 7 7 18 15 25 8 7 13 16 10 20 -3 5 -1 10 3 12 8 3 32 42 82 133 9 17
27 48 41 70 13 22 23 43 21 48 -1 4 2 7 6 7 5 0 18 19 31 43 12 23 30 56 41
72 10 17 31 55 47 85 15 30 31 57 34 60 6 5 16 20 77 130 14 25 32 57 41 72
50 83 81 138 81 143 0 3 5 11 10 18 20 23 78 127 72 127 -4 0 -2 4 4 8 10 6
41 58 90 152 11 19 21 37 24 40 3 3 18 25 32 50 34 60 68 119 85 150 8 14 23
39 33 55 11 17 27 46 36 65 10 19 27 49 38 65 12 17 21 32 21 35 0 3 8 16 17
30 8 14 58 99 111 190 52 91 104 181 116 200 11 19 24 42 28 50 3 8 16 28 27
45 11 16 21 36 23 44 1 9 7 17 12 19 6 2 11 8 11 13 0 5 11 27 25 49 14 22 22
40 18 40 -5 0 -3 4 4 8 10 6 33 46 145 242 11 19 25 41 30 48 6 6 7 12 2 12
-5 0 -4 4 2 8 13 9 84 129 84 143 0 5 5 9 10 9 6 0 10 4 10 9 0 5 23 49 51 98
28 48 59 102 69 118 9 17 34 58 54 92 20 34 36 66 36 72 0 6 5 11 10 11 6 0
10 4 10 9 0 5 24 49 54 98 29 50 57 100 61 111 3 12 10 22 15 22 5 0 12 9 15
20 4 11 24 49 46 85 21 36 39 68 39 72 0 3 6 14 14 22 7 9 26 41 42 71 16 30
32 57 35 60 3 3 20 32 38 65 18 33 38 66 43 73 6 6 7 12 2 12 -5 0 -1 5 9 11
9 5 17 14 17 19 0 6 46 89 103 186 56 96 111 192 123 212 78 139 106 187 131
227 7 11 19 34 28 50 8 17 26 48 40 70 14 22 28 48 32 58 3 9 9 17 14 17 5 0
9 5 9 10 0 14 60 120 68 120 4 0 17 -16 30 -35z"/>
</g>
</svg>
